<?xml version="1.0" encoding="UTF-8"?>
<svg version="1.1" xmlns="http://www.w3.org/2000/svg" width="47" height="43">
<path d="M0 0 C15.51 0 31.02 0 47 0 C47 14.19 47 28.38 47 43 C31.49 43 15.98 43 0 43 C0 28.81 0 14.62 0 0 Z " fill="#526C6A" transform="translate(0,0)"/>
<path d="M0 0 C0.9075 -0.03738281 1.815 -0.07476563 2.75 -0.11328125 C7.47116249 -0.17540181 9.52928763 -0.20120405 13.328125 2.8359375 C13.96234375 3.67382812 14.5965625 4.51171875 15.25 5.375 C15.58 5.705 15.91 6.035 16.25 6.375 C16.58413632 9.61485344 16.57499508 12.87013453 16.625 16.125 C16.68107422 17.48625 16.68107422 17.48625 16.73828125 18.875 C16.80040181 23.59616249 16.82620405 25.65428763 13.7890625 29.453125 C12.95117188 30.08734375 12.11328125 30.7215625 11.25 31.375 C10.92 31.705 10.59 32.035 10.25 32.375 C7.01014656 32.70913632 3.75486547 32.69999508 0.5 32.75 C-0.86125 32.80607422 -0.86125 32.80607422 -2.25 32.86328125 C-6.97116249 32.92540181 -9.02928763 32.95120405 -12.828125 29.9140625 C-13.46234375 29.07617188 -14.0965625 28.23828125 -14.75 27.375 C-15.08 27.045 -15.41 26.715 -15.75 26.375 C-16.08413632 23.13514656 -16.07499508 19.87986547 -16.125 16.625 C-16.16238281 15.7175 -16.19976563 14.81 -16.23828125 13.875 C-16.30040181 9.15383751 -16.32620405 7.09571237 -13.2890625 3.296875 C-12.45117188 2.66265625 -11.61328125 2.0284375 -10.75 1.375 C-8.44371409 -0.93128591 -3.09276124 0.04751449 0 0 Z " fill="#377CDA" transform="translate(23.75,5.625)"/>
<path d="M0 0 C0.74886475 0.00523682 1.49772949 0.01047363 2.26928711 0.01586914 C3.07817383 0.0190918 3.88706055 0.02231445 4.72045898 0.02563477 C5.5705957 0.03401367 6.42073242 0.04239258 7.29663086 0.05102539 C8.15063477 0.05553711 9.00463867 0.06004883 9.88452148 0.06469727 C12.00108749 0.07652166 14.11761771 0.0944577 16.23413086 0.11352539 C10.48413086 6.86352539 10.48413086 6.86352539 8.23413086 9.11352539 C5.60913086 9.23852539 5.60913086 9.23852539 3.23413086 9.11352539 C3.64791992 9.92563477 3.64791992 9.92563477 4.07006836 10.75415039 C4.23413086 13.11352539 4.23413086 13.11352539 1.96069336 15.91040039 C0.93937798 16.90777869 -0.09514617 17.89176819 -1.14086914 18.86352539 C-1.66165039 19.37012695 -2.18243164 19.87672852 -2.71899414 20.39868164 C-6.58403373 24.11352539 -6.58403373 24.11352539 -7.76586914 24.11352539 C-7.90126195 21.21611917 -8.00013743 18.32506918 -8.07836914 15.42602539 C-8.12026367 14.6094043 -8.1621582 13.7927832 -8.20532227 12.95141602 C-8.29661515 8.44154734 -8.25837368 6.71878137 -5.30883789 3.09399414 C-4.4696582 2.44043945 -3.63047852 1.78688477 -2.76586914 1.11352539 C-1.76586914 0.11352539 -1.76586914 0.11352539 0 0 Z " fill="#01A3BB" transform="translate(15.765869140625,5.886474609375)"/>
<path d="M0 0 C0.66 1.32 1.32 2.64 2 4 C-1.63 7.63 -5.26 11.26 -9 15 C-9.33 13.68 -9.66 12.36 -10 11 C-9.34 11 -8.68 11 -8 11 C-7.34 9.68 -6.68 8.36 -6 7 C-5.34 7 -4.68 7 -4 7 C-3.34 5.68 -2.68 4.36 -2 3 C-1.34 3 -0.68 3 0 3 C0 2.01 0 1.02 0 0 Z " fill="#1699C8" transform="translate(18,15)"/>
<path d="M0 0 C3.3 0 6.6 0 10 0 C10 0.66 10 1.32 10 2 C8.68 2 7.36 2 6 2 C6 5.63 6 9.26 6 13 C5.34 13 4.68 13 4 13 C4 9.37 4 5.74 4 2 C2.68 2 1.36 2 0 2 C0 1.34 0 0.68 0 0 Z " fill="#FCFDFE" transform="translate(19,15)"/>
<path d="M0 0 C1.65 0 3.3 0 5 0 C4.04270084 1.12588014 3.08412105 2.2506715 2.125 3.375 C1.59132813 4.00148438 1.05765625 4.62796875 0.5078125 5.2734375 C-0.61432007 6.55836651 -1.79371975 7.79371975 -3 9 C-5.125 8.625 -5.125 8.625 -7 8 C-6.34 8 -5.68 8 -5 8 C-4.34 6.68 -3.68 5.36 -3 4 C-2.34 4 -1.68 4 -1 4 C-0.67 2.68 -0.34 1.36 0 0 Z " fill="#0F97C7" transform="translate(27,6)"/>
</svg>
